<svg height="512" viewBox="0 0 256 256" width="512" xmlns="http://www.w3.org/2000/svg"><path d="m81.125 108.627c-.142 0-.287 0-.429-.011a8.3 8.3 0 0 1 -5.993-3.033l-16.278-19.895a8.3 8.3 0 1 1 12.844-10.508l10.471 12.8 23.36-23.362a8.3 8.3 0 1 1 11.734 11.735l-29.843 29.847a8.239 8.239 0 0 1 -5.866 2.427zm-16.285-31.492a3.3 3.3 0 0 0 -2.546 5.386l16.278 19.9a3.3 3.3 0 0 0 2.388 1.206h.165a3.277 3.277 0 0 0 2.331-.965l29.844-29.845a3.3 3.3 0 1 0 -4.664-4.663l-25.314 25.314a2.5 2.5 0 0 1 -3.7-.185l-12.222-14.938a3.273 3.273 0 0 0 -2.223-1.193c-.114-.011-.226-.017-.337-.017z" fill="#f9b087"/><path d="m197.476 203.273a8.239 8.239 0 0 1 -5.868-2.431l-10.015-10.015-10.017 10.016a8.3 8.3 0 1 1 -11.733-11.735l10.015-10.016-10.015-10.015a8.3 8.3 0 0 1 11.734-11.735l10.016 10.016 10.016-10.016a8.3 8.3 0 0 1 11.734 11.735l-10.016 10.015 10.016 10.016a8.3 8.3 0 0 1 -5.867 14.165zm-15.883-18.482a2.492 2.492 0 0 1 1.767.732l11.785 11.785a3.378 3.378 0 0 0 4.663 0 3.3 3.3 0 0 0 0-4.664l-11.785-11.784a2.5 2.5 0 0 1 0-3.536l11.785-11.783a3.3 3.3 0 0 0 0-4.663 3.375 3.375 0 0 0 -4.662 0l-11.786 11.783a2.5 2.5 0 0 1 -3.535 0l-11.784-11.784a3.377 3.377 0 0 0 -4.662 0 3.3 3.3 0 0 0 0 4.664l11.783 11.784a2.5 2.5 0 0 1 0 3.535l-11.783 11.784a3.3 3.3 0 0 0 0 4.663 3.377 3.377 0 0 0 4.663 0l11.784-11.785a2.493 2.493 0 0 1 1.767-.731z" fill="#f9b087"/><g fill="#846f75"><path d="m132.481 127.481v-39.574h3.5a2.5 2.5 0 0 0 0-5h-3.5v-39.574a2.5 2.5 0 0 0 -2.5-2.5h-84.148a2.5 2.5 0 0 0 -2.5 2.5v84.148a2.5 2.5 0 0 0 2.5 2.5h39.574v3.5a2.5 2.5 0 0 0 5 0v-3.5h39.574a2.5 2.5 0 0 0 2.5-2.5zm-5-2.5h-79.148v-79.148h79.148z"/><path d="m223.667 134.519h-39.574v-3.5a2.5 2.5 0 0 0 -5 0v3.5h-39.574a2.5 2.5 0 0 0 -2.5 2.5v39.574h-3.5a2.5 2.5 0 0 0 0 5h3.5v39.574a2.5 2.5 0 0 0 2.5 2.5h84.148a2.5 2.5 0 0 0 2.5-2.5v-84.148a2.5 2.5 0 0 0 -2.5-2.5zm-2.5 84.148h-79.148v-79.148h79.148z"/><path d="m181.593 102.111a2.5 2.5 0 0 0 -2.5 2.5v13.2a2.5 2.5 0 1 0 5 0v-13.2a2.5 2.5 0 0 0 -2.5-2.5z"/><path d="m175.593 87.907h3.5v3.5a2.5 2.5 0 1 0 5 0v-6a2.5 2.5 0 0 0 -2.5-2.5h-6a2.5 2.5 0 0 0 0 5z"/><path d="m149.185 87.907h13.2a2.5 2.5 0 0 0 0-5h-13.2a2.5 2.5 0 0 0 0 5z"/><path d="m87.907 162.389a2.5 2.5 0 0 0 2.5-2.5v-13.2a2.5 2.5 0 0 0 -5 0v13.2a2.5 2.5 0 0 0 2.5 2.5z"/><path d="m93.907 176.593h-3.5v-3.5a2.5 2.5 0 0 0 -5 0v6a2.5 2.5 0 0 0 2.5 2.5h6a2.5 2.5 0 1 0 0-5z"/><path d="m120.315 176.593h-13.2a2.5 2.5 0 0 0 0 5h13.2a2.5 2.5 0 1 0 0-5z"/></g></svg>